<?xml version="1.0" ?><svg data-name="Livello 1" id="Livello_1" viewBox="0 0 66 66" xmlns="http://www.w3.org/2000/svg"><defs><style>.cls-1{fill:none;stroke:#fff;stroke-linecap:round;stroke-miterlimit:10;stroke-width:2px;}</style></defs><title/><path d="M1,34A32,32,0,1,0,33,2,32,32,0,0,0,1,34Z"/><g data-name="Dollars 2" id="Dollars_2"><line class="cls-1" x1="34" x2="34" y1="17" y2="51"/><path class="cls-1" d="M23.91,41.13C23.91,45,28,48,33,48h0c5,0,9-3,9-6.87a6.06,6.06,0,0,0-2.31-4.61,8.19,8.19,0,0,0-4-1.74L31,34a9.7,9.7,0,0,1-3.25-1,6.65,6.65,0,0,1-3.87-5.7c0-3.83,4-6.94,9-6.94,4.1,0,7.56,2.07,8.66,4.94"/></g></svg>